<svg data-v-423bf9ae="" xmlns="http://www.w3.org/2000/svg" viewBox="0 0 422.9766325687921 60" class="font"><!----><!----><!----><g data-v-423bf9ae="" id="786dfce5-573e-455d-a1ca-35e45108b6c7" fill="black" transform="matrix(5.836575485636349,0,0,5.836575485636349,-0.3501966160811776,-22.70427833669566)"><path d="M7.46 14L8.92 14L4.58 4.06L4.38 4.06L0.06 14L1.53 14L2.39 11.91L6.59 11.91ZM2.93 10.63L4.49 6.85L6.06 10.63ZM13.45 6.86C12.49 6.86 11.75 7.32 11.34 7.98L11.34 7L10.02 7L10.02 14L11.34 14L11.34 10.18C11.34 8.79 12.07 8.06 13.05 8.06C14.04 8.06 14.76 8.79 14.76 10.18L14.76 14L16.07 14L16.07 9.98C16.07 7.90 14.83 6.86 13.45 6.86ZM18.94 5.68C19.46 5.68 19.84 5.29 19.84 4.77C19.84 4.28 19.46 3.89 18.94 3.89C18.42 3.89 18.05 4.28 18.05 4.77C18.05 5.29 18.42 5.68 18.94 5.68ZM18.28 14L19.60 14L19.60 7L18.28 7ZM24.96 7L23.52 7L23.52 5.12L22.20 5.12L22.20 7L21.31 7L21.31 8.26L22.20 8.26L22.20 14L23.52 14L23.52 8.26L24.96 8.26ZM31.16 7L31.16 8.12C30.62 7.39 29.81 6.90 28.77 6.90C26.82 6.90 25.49 8.48 25.49 10.50C25.49 12.52 26.82 14.10 28.77 14.10C29.81 14.10 30.62 13.61 31.16 12.88L31.16 14L32.48 14L32.48 7ZM28.99 12.82C27.73 12.82 26.85 11.79 26.85 10.50C26.85 9.23 27.73 8.19 28.99 8.19C30.25 8.19 31.16 9.27 31.16 10.50C31.16 11.73 30.25 12.82 28.99 12.82ZM46.06 4.20L46.06 11.07L39.58 4.05L39.40 4.05L39.40 14L40.71 14L40.71 7.27L47.19 14.17L47.38 14.17L47.38 4.20ZM52.57 14.11C54.68 14.11 56.14 12.45 56.14 10.50C56.14 8.55 54.68 6.89 52.57 6.89C50.46 6.89 49.00 8.55 49.00 10.50C49.00 12.45 50.46 14.11 52.57 14.11ZM52.57 12.80C51.25 12.80 50.34 11.73 50.34 10.49C50.34 9.25 51.25 8.20 52.57 8.20C53.91 8.20 54.78 9.25 54.78 10.49C54.78 11.73 53.91 12.80 52.57 12.80ZM60.58 7L59.14 7L59.14 5.12L57.82 5.12L57.82 7L56.92 7L56.92 8.26L57.82 8.26L57.82 14L59.14 14L59.14 8.26L60.58 8.26ZM64.86 7L63.42 7L63.42 5.12L62.10 5.12L62.10 7L61.21 7L61.21 8.26L62.10 8.26L62.10 14L63.42 14L63.42 8.26L64.86 8.26ZM68.96 14.11C71.08 14.11 72.53 12.45 72.53 10.50C72.53 8.55 71.08 6.89 68.96 6.89C66.85 6.89 65.39 8.55 65.39 10.50C65.39 12.45 66.85 14.11 68.96 14.11ZM68.96 12.80C67.65 12.80 66.74 11.73 66.74 10.49C66.74 9.25 67.65 8.20 68.96 8.20C70.31 8.20 71.18 9.25 71.18 10.49C71.18 11.73 70.31 12.80 68.96 12.80Z"></path></g><!----><!----></svg>